HIERARCHY
ROOT root
{
	OFFSET 0.000000 0.000000 0.000000
	CHANNELS 6 Xposition Yposition Zposition Zrotation Yrotation Xrotation
	JOINT lhip
	{
		OFFSET 0.058581 -0.082280 -0.017664
		CHANNELS 3 Zrotation Yrotation Xrotation
		JOINT lknee
		{
			OFFSET 0.043451 -0.386469 0.008037
			CHANNELS 3 Zrotation Yrotation Xrotation
			JOINT lankle
			{
				OFFSET -0.014790 -0.426874 -0.037428
				CHANNELS 3 Zrotation Yrotation Xrotation
				JOINT ltoe
				{
					OFFSET 0.041054 -0.060286 0.122042
					CHANNELS 3 Zrotation Yrotation Xrotation
					End Site
					{
						OFFSET 0.000000 0.000000 0.000000
					}
				}
			}
		}
	}
	JOINT rhip
	{
		OFFSET -0.060310 -0.090513 -0.013543
		CHANNELS 3 Zrotation Yrotation Xrotation
		JOINT rknee
		{
			OFFSET -0.043257 -0.383688 -0.004843
			CHANNELS 3 Zrotation Yrotation Xrotation
			JOINT rankle
			{
				OFFSET 0.019056 -0.420046 -0.034562
				CHANNELS 3 Zrotation Yrotation Xrotation
				JOINT rtoe
				{
					OFFSET -0.034840 -0.062106 0.130323
					CHANNELS 3 Zrotation Yrotation Xrotation
					End Site
					{
						OFFSET 0.000000 0.000000 0.000000
					}
				}
			}
		}
	}
	JOINT lowerback
	{
		OFFSET 0.004439 0.124404 -0.038385
		CHANNELS 3 Zrotation Yrotation Xrotation
		JOINT upperback
		{
			OFFSET 0.004488 0.137956 0.026820
			CHANNELS 3 Zrotation Yrotation Xrotation
			JOINT chest
			{
				OFFSET -0.002265 0.056032 0.002855
				CHANNELS 3 Zrotation Yrotation Xrotation
				JOINT lowerneck
				{
					OFFSET -0.013390 0.211636 -0.033468
					CHANNELS 3 Zrotation Yrotation Xrotation
					JOINT upperneck
					{
						OFFSET 0.010113 0.088937 0.050410
						CHANNELS 3 Zrotation Yrotation Xrotation
						End Site
						{
							OFFSET 0.000000 0.000000 0.000000
						}
					}
				}
				JOINT lclavicle
				{
					OFFSET 0.071702 0.114000 -0.018898
					CHANNELS 3 Zrotation Yrotation Xrotation
					JOINT lshoulder
					{
						OFFSET 0.122921 0.045205 -0.019046
						CHANNELS 3 Zrotation Yrotation Xrotation
						JOINT lelbow
						{
							OFFSET 0.255332 -0.015649 -0.022946
							CHANNELS 3 Zrotation Yrotation Xrotation
							JOINT lwrist
							{
								OFFSET 0.265709 0.012698 -0.007375
								CHANNELS 3 Zrotation Yrotation Xrotation
								End Site
								{
									OFFSET 0.000000 0.000000 0.000000
								}
							}
						}
					}
				}
				JOINT rclavicle
				{
					OFFSET -0.082954 0.112472 -0.023707
					CHANNELS 3 Zrotation Yrotation Xrotation
					JOINT rshoulder
					{
						OFFSET -0.113228 0.046853 -0.008472
						CHANNELS 3 Zrotation Yrotation Xrotation
						JOINT relbow
						{
							OFFSET -0.260127 -0.014369 -0.031269
							CHANNELS 3 Zrotation Yrotation Xrotation
							JOINT rwrist
							{
								OFFSET -0.269108 0.006794 -0.006027
								CHANNELS 3 Zrotation Yrotation Xrotation
								End Site
								{
									OFFSET 0.000000 0.000000 0.000000
								}
							}
						}
					}
				}
			}
		}
	}
}
MOTION
Frames: 14
Frame Time: 0.033333
0.203608 0.417448 0.980691 73.790568 0.713232 97.728249 -3.701481 1.124891 -5.566663 -3.238366 -3.999430 -2.279562 8.657676 14.584423 -7.972121 0.000000 -0.000000 0.000000 -26.370058 -11.385776 1.863843 -1.497643 -4.771337 3.711568 20.123884 -17.261332 24.857712 0.000000 -0.000000 0.000000 -1.141149 4.036059 -2.383692 4.329682 -3.186556 -19.943990 4.056913 4.979332 9.324835 4.705363 31.777466 12.889700 1.638180 23.636175 -11.408202 31.602769 4.889535 -18.685351 11.495993 -17.266302 -17.647914 10.317482 -10.781754 -6.577670 -16.883885 -11.078873 -18.941536 -21.026388 -6.577268 -14.954155 -1.921904 5.260708 -19.042984 -123.957121 61.169672 -126.194778 14.698258 12.180741 -23.811418 
0.203487 0.417564 0.980891 73.815528 0.652572 97.681240 -3.848447 1.019439 -5.516572 -3.091150 -4.522292 -2.306936 8.232751 15.170916 -7.914678 0.000000 -0.000000 0.000000 -26.436018 -11.639827 1.826617 -1.480102 -4.485336 3.799919 19.586740 -17.066654 25.036409 0.000000 -0.000000 0.000000 -1.231302 4.018826 -2.083684 4.256532 -3.242347 -20.358583 4.227650 5.095576 9.625769 4.704187 31.583708 12.879168 1.538563 23.406972 -11.266210 31.627920 4.980883 -18.935278 11.158480 -17.363937 -17.690251 10.428647 -10.985236 -5.956913 -16.240014 -10.931505 -19.257117 -21.034813 -6.540456 -15.150074 -1.678483 5.215498 -19.150200 -124.138980 61.197641 -126.174190 14.040274 12.044284 -24.213241 
0.203615 0.417774 0.981054 73.769411 0.636468 97.629494 -3.866189 0.951214 -5.557142 -3.111941 -4.420468 -2.131335 8.183543 15.194790 -8.022831 0.000000 -0.000000 0.000000 -26.486142 -11.648037 1.822357 -1.434932 -4.725032 3.797841 19.438717 -17.015547 25.300307 0.000000 -0.000000 0.000000 -1.278239 4.026427 -1.969286 4.277186 -3.264686 -20.179240 4.234290 5.178621 9.401515 4.797589 31.632006 12.990762 1.485317 23.109631 -11.121931 31.643179 5.145499 -19.030343 10.967884 -17.415209 -17.353027 10.544739 -11.084455 -5.918113 -16.981763 -11.333709 -19.376465 -20.862167 -6.473547 -15.232784 -1.672561 5.308709 -18.893796 -123.841517 61.045117 -126.044236 14.135910 12.091827 -24.093617 
0.203281 0.418115 0.981227 73.612951 0.611262 97.598510 -3.846729 0.945148 -5.753148 -3.279470 -4.340750 -1.776494 8.292707 15.305976 -8.080831 0.000000 -0.000000 0.000000 -26.477229 -11.547788 1.711964 -1.428786 -4.560264 3.772868 19.213043 -16.979212 25.421663 0.000000 -0.000000 0.000000 -1.408018 4.143312 -2.028396 4.304060 -3.188277 -20.055078 4.292923 5.261785 9.483984 4.681010 31.382140 13.110624 1.588290 23.151213 -11.046274 31.472364 5.007667 -19.053257 10.988648 -17.270324 -17.183336 10.639473 -11.217268 -5.817702 -15.661407 -11.025938 -20.111121 -20.755316 -6.435923 -15.398898 -1.407809 5.615902 -18.966043 -123.699107 61.010920 -126.011981 13.399507 11.744234 -24.087124 
0.202991 0.418452 0.981346 73.655679 0.611150 97.613676 -3.866521 0.789064 -5.951201 -3.270043 -4.255287 -1.487431 8.330558 15.300895 -8.182014 0.000000 -0.000000 0.000000 -26.448242 -11.622476 1.692215 -1.436119 -4.563650 3.722437 18.952945 -17.056427 25.463416 0.000000 -0.000000 0.000000 -1.360279 4.225250 -2.091161 4.266656 -3.271366 -19.768837 4.212097 5.256434 9.321464 4.722743 31.317423 13.257138 1.484278 23.144851 -11.129476 31.428514 4.850122 -19.216952 11.011226 -17.123766 -16.945013 10.707876 -11.115858 -6.004067 -15.804013 -11.371889 -20.529922 -20.782208 -6.292788 -15.662444 -1.179212 5.648909 -18.671622 -123.490422 60.944999 -125.789020 13.307892 11.776575 -24.055535 
0.202522 0.419320 0.981428 73.686248 0.694574 97.457097 -3.803155 0.729769 -6.049963 -3.311710 -4.171840 -1.085924 8.367544 15.251773 -8.309325 0.000000 -0.000000 0.000000 -26.378998 -11.737549 1.750662 -1.507489 -4.877752 3.763240 18.881920 -17.186210 25.491590 0.000000 -0.000000 0.000000 -1.162974 4.221483 -1.875462 4.239052 -3.270345 -19.746728 4.115605 5.228043 9.366462 4.884102 31.256518 13.351868 1.533331 22.981057 -10.707764 31.472444 4.941858 -19.062246 10.846075 -17.155564 -17.183473 10.963346 -11.024276 -6.487593 -16.597757 -11.536718 -20.351940 -20.646058 -6.034994 -15.740413 -1.173781 5.847031 -18.770799 -123.151674 61.139489 -125.174515 14.438386 12.115728 -23.905426 
0.201977 0.420271 0.981538 73.482249 0.748162 97.362766 -3.768734 0.887034 -6.225922 -3.471112 -4.105283 -0.655169 8.336168 15.290479 -8.415787 0.000000 -0.000000 0.000000 -26.314786 -11.736206 1.565517 -1.529551 -4.725400 3.950287 19.022673 -16.882049 25.356431 0.000000 -0.000000 0.000000 -1.153174 4.276892 -1.705410 4.276278 -3.119431 -19.756867 4.157234 5.263315 9.464412 4.851033 31.272492 13.153050 1.526900 22.776666 -10.400737 31.425947 4.968766 -18.888547 10.610179 -17.242031 -17.430276 11.280428 -10.893137 -7.114921 -15.418102 -11.176580 -20.209024 -20.539116 -5.818420 -15.453204 -1.151520 5.975253 -18.982696 -122.988717 61.105447 -124.981138 13.440928 11.658577 -23.826417 
0.201003 0.421295 0.981593 73.250181 0.824530 97.421358 -3.727959 1.108345 -6.631521 -3.571459 -4.032420 -0.165042 8.213775 15.227168 -8.587453 0.000000 -0.000000 0.000000 -26.222022 -11.706900 1.169805 -1.511131 -4.731301 4.119267 18.830059 -16.861285 25.318664 0.000000 -0.000000 0.000000 -1.109710 4.321259 -1.520655 4.263652 -2.854212 -19.929909 4.167109 5.318066 9.461573 4.860096 30.900014 13.538197 1.532881 22.370323 -10.134791 31.251658 4.760803 -18.568031 10.777576 -17.120670 -17.645446 11.479366 -10.657491 -7.346238 -15.308542 -11.058943 -20.292325 -20.519657 -5.543739 -15.129824 -1.095957 5.806623 -19.188244 -122.811951 61.015665 -124.826467 13.069091 11.499513 -24.064415 
0.200824 0.422497 0.981869 73.367585 0.804525 97.437880 -3.747332 0.879505 -6.748661 -3.700654 -4.185065 -0.003695 8.351694 15.464050 -8.587554 0.000000 -0.000000 0.000000 -26.227823 -11.866784 1.141662 -1.575750 -4.773077 4.207323 18.973413 -17.053954 25.271451 0.000000 -0.000000 0.000000 -1.202193 4.290568 -1.493879 4.241062 -2.905582 -19.807745 4.251656 5.456318 9.355268 4.605075 30.742344 13.462759 1.792002 22.323986 -10.050635 31.151590 4.900546 -18.739894 10.630012 -17.313155 -17.984594 11.221598 -10.986550 -7.964048 -14.084074 -10.682078 -20.342910 -20.433238 -5.585063 -15.181649 -1.058137 5.939808 -19.313052 -123.181273 61.446260 -125.434817 12.496605 11.522267 -23.735279 
0.200595 0.424174 0.981797 73.508536 0.858296 97.338246 -3.755787 1.052131 -6.919434 -3.811005 -4.317201 0.400262 8.358285 15.347843 -8.761152 0.000000 -0.000000 0.000000 -26.249887 -11.898567 1.212108 -1.556343 -5.016936 4.235987 18.786873 -17.148463 25.106902 0.000000 -0.000000 0.000000 -1.076418 4.280586 -1.154037 4.165681 -2.946326 -19.892026 4.169869 5.442162 9.504441 4.558196 30.459884 13.359828 1.596978 22.133558 -9.751801 30.945852 5.235682 -19.250792 10.609361 -17.454498 -17.696799 11.115280 -10.948677 -8.074254 -14.207266 -10.787525 -20.634724 -20.050740 -5.740980 -15.799706 -1.139800 6.501869 -19.013560 -123.198640 61.778311 -125.615279 12.265622 11.185930 -23.326344 
0.199889 0.425447 0.981751 73.456222 0.827756 97.224856 -3.835045 1.050516 -6.973195 -3.852731 -4.095248 0.603001 8.353553 15.210343 -8.863712 0.000000 -0.000000 0.000000 -26.340010 -11.802167 1.259007 -1.557700 -5.090995 4.247033 18.680969 -17.046220 25.013784 0.000000 -0.000000 0.000000 -1.193285 4.332739 -0.896548 4.142008 -2.890901 -19.639452 4.149901 5.515906 9.199087 4.737939 29.941552 13.375618 1.651049 21.383076 -8.882779 30.882161 5.375352 -19.089371 10.383657 -17.645592 -17.693492 11.292474 -11.093771 -8.695734 -14.939278 -11.172926 -21.029343 -19.870499 -5.636135 -15.536036 -1.044462 6.553199 -18.836005 -123.210083 61.504890 -125.585217 12.528777 11.409931 -23.407578 
0.199128 0.426637 0.981844 73.365472 0.883946 97.251308 -3.816163 0.943574 -7.305361 -3.915102 -3.923628 1.040615 8.322638 15.305989 -8.926991 0.000000 -0.000000 0.000000 -26.249393 -11.762137 0.964157 -1.590477 -5.311172 4.451862 18.697180 -17.335949 25.408114 0.000000 -0.000000 0.000000 -1.216007 4.419756 -0.894124 4.149138 -2.780103 -19.645420 4.114100 5.502961 9.325830 4.717149 29.442813 13.762268 1.631959 20.987770 -8.459764 30.710466 5.240168 -18.873566 10.372483 -17.504741 -17.797905 11.477937 -11.015721 -9.315600 -14.004032 -11.123855 -21.385022 -19.689141 -5.319429 -15.690891 -0.853800 6.634457 -18.663771 -123.338428 61.449801 -125.390962 11.811203 11.224892 -23.358656 
0.197863 0.427846 0.981917 73.430656 0.975198 97.102740 -3.719330 0.840301 -7.574114 -3.999211 -3.835296 1.643144 8.305305 15.345260 -9.158719 0.000000 -0.000000 0.000000 -26.194373 -11.796408 0.868166 -1.559797 -5.584738 4.693886 18.497551 -17.412647 25.230202 0.000000 -0.000000 0.000000 -1.169359 4.467632 -0.670871 4.109300 -2.740063 -19.533606 4.069439 5.422336 9.489967 4.529876 28.982203 14.042306 1.707623 20.467779 -8.241834 30.498224 5.206209 -19.015727 10.422450 -17.560659 -18.028874 11.532396 -10.774893 -9.946855 -14.017488 -11.154051 -20.878364 -19.534879 -5.113343 -15.873187 -0.707455 6.687222 -18.578559 -123.446685 61.480170 -125.560971 11.755457 11.287648 -23.238460 
0.196860 0.429040 0.982070 73.340631 1.134664 97.167757 -3.554518 0.853020 -8.107035 -4.159846 -3.842925 2.349027 8.334141 15.406270 -9.341337 0.000000 -0.000000 0.000000 -26.044262 -11.893293 0.540428 -1.531663 -5.848932 4.887881 18.457810 -17.612587 25.638467 0.000000 -0.000000 0.000000 -1.175505 4.538247 -0.718649 4.145719 -2.574531 -19.370928 4.031983 5.588961 9.221791 4.629889 28.435486 13.921762 2.233156 19.563071 -6.470267 30.276725 5.165562 -18.460895 10.435192 -17.642287 -18.383878 11.766927 -11.186687 -10.867086 -14.612616 -11.305311 -20.944323 -19.359533 -4.886629 -15.356259 -0.536227 6.682369 -18.731138 -123.099784 61.275653 -125.360075 12.167801 11.351804 -23.392654 
